<svg height="100%" width="100%" id="svg" viewBox="0 0 1440 700" xmlns="http://www.w3.org/2000/svg" class="transition duration-300 ease-in-out delay-150"><defs><linearGradient id="gradient"><stop offset="5%" stop-color="#002bdc88"></stop><stop offset="95%" stop-color="#32ded488"></stop></linearGradient></defs><path d="M 0,700 C 0,700 0,233 0,233 C 49.56936458663513,276.74062498339885 99.13872917327026,320.4812499667977 137,310 C 174.86127082672974,299.5187500332023 201.01444789355412,234.81562511620825 245,200 C 288.9855521064459,165.18437488379175 350.80347925251317,160.2562495683694 399,155 C 447.19652074748683,149.7437504316306 481.7716350963931,144.15937661031413 523,177 C 564.2283649036069,209.84062338968587 612.1099803619146,281.10624399037397 652,265 C 691.8900196380854,248.89375600962603 723.7884434559488,145.41564742818997 772,152 C 820.2115565440512,158.58435257181003 884.7362458142902,275.2311662968662 931,312 C 977.2637541857098,348.7688337031338 1005.2665732868911,305.65968738434515 1041,278 C 1076.7334267131089,250.34031261565485 1120.1974610381446,238.1300841657532 1164,253 C 1207.8025389618554,267.8699158342468 1251.94358256053,309.8199759526419 1298,311 C 1344.05641743947,312.1800240473581 1392.028208719735,272.59001202367904 1440,233 C 1440,233 1440,700 1440,700 Z" stroke="none" stroke-width="0" fill="url(#gradient)" class="transition-all duration-300 ease-in-out delay-150"></path><defs><linearGradient id="gradient"><stop offset="5%" stop-color="#002bdcff"></stop><stop offset="95%" stop-color="#32ded4ff"></stop></linearGradient></defs><path d="M 0,700 C 0,700 0,466 0,466 C 39.62241043775755,523.9527340146161 79.2448208755151,581.9054680292322 126,550 C 172.7551791244849,518.0945319707678 226.64312693569724,396.33086189768716 276,394 C 325.35687306430276,391.66913810231284 370.1826713816961,508.77108438001915 406,539 C 441.8173286183039,569.2289156199809 468.6261875375186,512.5848005822364 511,470 C 553.3738124624814,427.4151994177636 611.3125784682294,398.88971329103504 665,410 C 718.6874215317706,421.11028670896496 768.123498589564,471.8563462536234 804,482 C 839.876501410436,492.1436537463766 862.1934271735148,461.684901694471 905,455 C 947.8065728264852,448.315098305529 1011.1027927163773,465.4040469684923 1062,444 C 1112.8972072836227,422.5959530315077 1151.3954019609753,362.69891043155974 1191,382 C 1230.6045980390247,401.30108956844026 1271.3155994397212,499.8003113052687 1313,527 C 1354.6844005602788,554.1996886947313 1397.3422002801394,510.09984434736566 1440,466 C 1440,466 1440,700 1440,700 Z" stroke="none" stroke-width="0" fill="url(#gradient)" class="transition-all duration-300 ease-in-out delay-150"></path></svg>