<svg height="100%" width="100%" id="svg" viewBox="0 0 1440 700" xmlns="http://www.w3.org/2000/svg" class="transition duration-300 ease-in-out delay-150"><defs><linearGradient id="gradient"><stop offset="5%" stop-color="#fcb90088"></stop><stop offset="95%" stop-color="#32ded488"></stop></linearGradient></defs><path d="M 0,700 C 0,700 0,233 0,233 C 50.44108983799707,177.59646539027983 100.88217967599414,122.19293078055964 160,149 C 219.11782032400586,175.80706921944036 286.9123711340206,284.82474226804123 359,317 C 431.0876288659794,349.17525773195877 507.4683357879235,304.5081001472754 572,266 C 636.5316642120765,227.4918998527246 689.2142857142857,195.1428571428571 737,197 C 784.7857142857143,198.8571428571429 827.6745213549336,234.92047128129607 892,244 C 956.3254786450664,253.07952871870393 1042.0876288659795,235.17525773195877 1103,243 C 1163.9123711340205,250.82474226804123 1199.9749631811487,284.37849779086895 1252,287 C 1304.0250368188513,289.62150220913105 1372.0125184094256,261.3107511045655 1440,233 C 1440,233 1440,700 1440,700 Z" stroke="none" stroke-width="0" fill="url(#gradient)" class="transition-all duration-300 ease-in-out delay-150"></path><defs><linearGradient id="gradient"><stop offset="5%" stop-color="#fcb900ff"></stop><stop offset="95%" stop-color="#32ded4ff"></stop></linearGradient></defs><path d="M 0,700 C 0,700 0,466 0,466 C 63.421207658321066,450.0392120765832 126.84241531664213,434.0784241531664 193,426 C 259.15758468335787,417.9215758468336 328.0515463917526,417.7255154639176 389,404 C 449.9484536082474,390.2744845360824 502.9513991163476,363.0195139911634 563,385 C 623.0486008836524,406.9804860088366 690.1428571428571,478.19642857142867 736,498 C 781.8571428571429,517.8035714285713 806.4771723122238,486.1947717231222 866,465 C 925.5228276877762,443.8052282768778 1019.9484536082473,433.0244845360826 1093,444 C 1166.0515463917527,454.9755154639174 1217.7290132547867,487.7072901325478 1272,495 C 1326.2709867452133,502.2927098674522 1383.1354933726066,484.1463549337261 1440,466 C 1440,466 1440,700 1440,700 Z" stroke="none" stroke-width="0" fill="url(#gradient)" class="transition-all duration-300 ease-in-out delay-150"></path></svg>